<svg width="12" height="22" viewBox="0 0 12 22" fill="none" xmlns="http://www.w3.org/2000/svg">
<path fill-rule="evenodd" clip-rule="evenodd" d="M0.549764 0.674814C0.625238 0.599149 0.714898 0.539117 0.813609 0.498156C0.91232 0.457196 1.01814 0.436111 1.12501 0.436111C1.23189 0.436111 1.33771 0.457196 1.43642 0.498156C1.53513 0.539117 1.62479 0.599149 1.70026 0.674814L11.4503 10.4248C11.5259 10.5003 11.586 10.5899 11.6269 10.6887C11.6679 10.7874 11.689 10.8932 11.689 11.0001C11.689 11.1069 11.6679 11.2128 11.6269 11.3115C11.586 11.4102 11.5259 11.4998 11.4503 11.5753L1.70026 21.3253C1.5477 21.4779 1.34077 21.5636 1.12501 21.5636C0.909253 21.5636 0.70233 21.4779 0.549764 21.3253C0.397198 21.1727 0.311487 20.9658 0.311487 20.7501C0.311487 20.5343 0.397198 20.3274 0.549764 20.1748L9.72614 11.0001L0.549764 1.82531C0.474099 1.74984 0.414066 1.66018 0.373106 1.56147C0.332145 1.46276 0.311062 1.35694 0.311062 1.25006C0.311062 1.14319 0.332145 1.03737 0.373106 0.938659C0.414066 0.839949 0.474099 0.750288 0.549764 0.674814Z" fill="#18A0FB"/>
</svg>
